# xmcd
#
# Track frame offsets: 
#        182
#        12717
#        21955
#        34447
#        47547
#        56415
#        69245
#        77182
#        86425
#        95695
#        104662
#        114677
#
# Disc length: 1635 seconds
#
# Revision: 2
# Processed by: cddbd v1.5.2PL0 Copyright (c) Steve Scherf et al.
# Submitted via: ExactAudioCopy v0.99pb4
#
DISCID=a006610c
DTITLE=B.B. King - Rock Me Baby
DYEAR=1900
DGENRE=
TTITLE0=Rock Me Baby
TTITLE1=You Know I Love You
TTITLE2=Everyday I've Got The Blues
TTITLE3=Sweet Sixteen
TTITLE4=You Upset Me Baby
TTITLE5=Troubles, Troubles, Troubles
TTITLE6=Sneakin' Around
TTITLE7=My Own Fault
TTITLE8=Five Long Years
TTITLE9=Let Me love You
TTITLE10=Bad Luck
TTITLE11=Please Love Me
EXTD=
EXTT0=Memphis Slim
EXTT1=B.B. King
EXTT2=Memphis Slim\n
EXTT3=Nugetre\n
EXTT4=B.B. King
EXTT5=B.B. King
EXTT6=B.B. King
EXTT7=B.B. King
EXTT8=Eddie Boyd
EXTT9=B.B. King
EXTT10=B.B. King
EXTT11=B.B. King
PLAYORDER=
